# Blender v2.83.1 OBJ File: 'grill.blend'
# www.blender.org
mtllib grill.mtl
o Cube
v 0.895208 0.951090 -1.790416
v 1.000000 -1.000000 -2.000000
v 0.895208 0.951090 1.790416
v 1.000000 -1.000000 2.000000
v -0.895208 0.951090 -1.790416
v -1.000000 -1.000000 -2.000000
v -0.895208 0.951090 1.790416
v -1.000000 -1.000000 2.000000
v 1.000000 1.000000 2.000000
v -1.000000 1.000000 2.000000
v 1.000000 1.000000 -2.000000
v -1.000000 1.000000 -2.000000
v 0.895208 0.923221 1.790416
v -0.895208 0.923221 1.790416
v 0.895208 0.923221 -1.790416
v -0.895208 0.923221 -1.790416
v 1.000000 0.605336 -1.928574
v -1.000000 0.605336 1.928574
v 1.000000 0.605336 1.928574
v -1.000000 0.605336 -1.928574
v 1.087984 1.000000 -2.000000
v 1.087984 1.000000 2.000000
v 1.087984 0.605336 -2.000000
v 1.087984 0.605336 2.000000
v 1.000000 0.521800 -1.928574
v 1.000000 0.521800 1.928574
v -1.000000 0.521800 -1.928574
v -1.000000 0.521800 1.928574
v 1.058285 0.521800 -2.000000
v 1.058285 -1.000000 -2.000000
v 1.058285 0.521800 2.000000
v 1.058285 -1.000000 2.000000
v 1.000000 0.314687 -2.000000
v 1.000000 0.314687 2.000000
v -1.000000 0.314687 -2.000000
v -1.000000 0.314687 2.000000
v 1.058285 0.314687 -2.000000
v 1.058285 0.314687 2.000000
v 1.154183 0.521800 -2.000000
v 1.154183 0.521800 2.000000
v 1.154183 0.314687 -2.000000
v 1.154183 0.314687 2.000000
v 1.000000 -0.869531 -2.000000
v 1.000000 -0.869531 2.000000
v -1.000000 -0.869531 -2.000000
v 1.058285 -0.869531 -2.000000
v 1.058285 -0.869531 2.000000
v -1.000000 -0.869531 2.000000
v 1.153108 -0.869531 -2.000000
v 1.153108 -1.000000 -2.000000
v 1.153108 -0.869531 2.000000
v 1.153108 -1.000000 2.000000
vt 0.063230 0.675548
vt 0.936301 0.675548
vt 0.936301 0.675548
vt 0.063230 0.675548
vt 0.584417 0.638007
vt 0.633749 0.638007
vt 0.633749 0.888007
vt 0.584417 0.888007
vt 0.930895 0.160990
vt 0.980228 0.160990
vt 0.980228 0.410990
vt 0.930895 0.410990
vt 0.125000 0.500000
vt 0.375000 0.500000
vt 0.375000 0.750000
vt 0.125000 0.750000
vt 0.004971 0.559101
vt 0.939032 0.559100
vt 0.939032 0.586866
vt 0.004971 0.586866
vt 0.432176 0.630309
vt 0.481509 0.630309
vt 0.481509 0.880309
vt 0.432176 0.880309
vt 0.950225 0.912764
vt 0.950225 0.589220
vt 1.002956 0.570284
vt 1.002956 0.931700
vt 0.892857 0.609721
vt 0.054179 0.609721
vt 0.005091 0.590784
vt 0.941944 0.590784
vt 0.049306 0.589220
vt -0.003424 0.570284
vt 0.049306 0.912764
vt -0.003424 0.931700
vt 0.950225 0.912764
vt 0.950225 0.589220
vt 0.049306 0.589220
vt 0.049306 0.912764
vt 0.421734 0.630309
vt 0.421734 0.880309
vt 0.699881 0.366745
vt 0.699881 0.384043
vt 0.034136 0.384043
vt 0.034136 0.366745
vt 0.920453 0.160990
vt 0.920453 0.410990
vt 0.573975 0.638007
vt 0.573975 0.888007
vt 0.699881 0.384043
vt 0.699881 0.465771
vt 0.034136 0.465771
vt 0.034136 0.384043
vt 0.584417 0.638007
vt 0.633749 0.638007
vt 0.481509 0.880309
vt 0.432176 0.880309
vt 0.548085 0.638007
vt 0.548085 0.888007
vt 0.894564 0.160990
vt 0.894564 0.410990
vt 0.034136 0.366745
vt 0.699881 0.366745
vt 0.395845 0.630309
vt 0.395845 0.880309
vt 0.395845 0.880309
vt 0.421734 0.880309
vt 0.421734 0.880309
vt 0.395845 0.880309
vt 0.400058 0.638007
vt 0.383749 0.638007
vt 0.383749 0.638007
vt 0.400058 0.638007
vt 0.375000 0.500000
vt 0.375000 0.750000
vt 0.247818 0.880309
vt 0.247818 0.880309
vt 0.548085 0.638007
vt 0.573975 0.638007
vt 0.699881 0.078626
vt 0.699881 0.323855
vt 0.034136 0.323855
vt 0.034136 0.078626
vt 0.247818 0.630310
vt 0.746536 0.160990
vt 0.746536 0.410990
vt 0.400058 0.888007
vt 0.699881 0.323855
vt 0.699881 0.366745
vt 0.034136 0.366745
vt 0.034136 0.323855
vt 0.548085 0.638007
vt 0.573975 0.638007
vt 0.383749 0.888007
vt 0.730228 0.160990
vt 0.730228 0.410990
vt 0.231509 0.630309
vt 0.231509 0.880309
vt 0.383749 0.638007
vt 0.400058 0.638007
vt 0.231509 0.880309
vt 0.699881 0.051608
vt 0.699881 0.078626
vt 0.034136 0.078626
vt 0.034136 0.051608
vt 0.375000 0.500000
vt 0.375000 0.750000
vt 0.247818 0.880309
vt 0.231509 0.880309
vt 0.061775 0.890468
vt 0.061774 0.620849
vt 0.937757 0.620849
vt 0.937757 0.890468
vn 1.0000 0.0000 0.0000
vn 0.0000 -0.1781 0.9840
vn -1.0000 0.0000 0.0000
vn 0.0000 -1.0000 0.0000
vn 0.0000 1.0000 0.0000
vn 0.0000 -0.1781 -0.9840
vn 0.0000 0.9738 -0.2273
vn -0.4229 0.9062 0.0000
vn 0.4229 0.9062 0.0000
vn 0.0000 0.9738 0.2273
vn 0.0000 0.0000 -1.0000
vn 0.0000 0.0000 1.0000
vn -0.3748 -0.0836 0.9233
vn -0.3748 -0.0836 -0.9233
vn 0.0000 0.3260 0.9454
vn 0.0000 0.3260 -0.9454
vn -0.5169 0.1455 -0.8436
vn -0.5169 0.1455 0.8436
g Cube_Cube_grill1
usemtl grill1
s off
f 5/1/1 7/2/1 14/3/1 16/4/1
f 19/5/2 9/6/2 10/7/2 18/8/2
f 18/9/3 10/10/3 12/11/3 20/12/3
f 6/13/4 2/14/4 4/15/4 8/16/4
f 11/17/5 9/18/5 22/19/5 21/20/5
f 20/21/6 12/22/6 11/23/6 17/24/6
f 3/25/7 7/26/7 10/27/7 9/28/7
f 1/29/8 3/30/8 9/31/8 11/32/8
f 7/26/9 5/33/9 12/34/9 10/27/9
f 5/33/10 1/35/10 11/36/10 12/34/10
f 7/26/11 3/25/11 13/37/11 14/38/11
f 1/35/12 5/33/12 16/39/12 15/40/12
f 3/25/3 1/35/3 15/40/3 13/37/3
f 27/41/11 20/21/11 17/24/11 25/42/11
f 25/43/1 17/44/1 19/45/1 26/46/1
f 28/47/3 18/9/3 20/12/3 27/48/3
f 26/49/12 19/5/12 18/8/12 28/50/12
f 23/51/1 21/52/1 22/53/1 24/54/1
f 9/6/13 19/5/13 24/55/13 22/56/13
f 17/24/14 11/23/14 21/57/14 23/58/14
f 19/45/4 17/44/4 23/51/4 24/54/4
f 34/59/15 26/49/15 28/50/15 36/60/15
f 36/61/3 28/47/3 27/48/3 35/62/3
f 25/43/5 26/46/5 31/63/5 29/64/5
f 35/65/16 27/41/16 25/42/16 33/66/16
f 37/67/11 29/68/11 39/69/11 41/70/11
f 44/71/12 4/72/12 32/73/12 47/74/12
f 33/66/17 25/42/17 29/68/17 37/67/17
f 4/15/4 2/14/4 30/75/4 32/76/4
f 43/77/11 33/66/11 37/67/11 46/78/11
f 26/49/18 34/59/18 38/79/18 31/80/18
f 46/81/1 37/82/1 38/83/1 47/84/1
f 45/85/11 35/65/11 33/66/11 43/77/11
f 48/86/3 36/61/3 35/62/3 45/87/3
f 44/71/12 34/59/12 36/60/12 48/88/12
f 41/89/1 39/90/1 40/91/1 42/92/1
f 31/80/12 38/79/12 42/93/12 40/94/12
f 38/83/4 37/82/4 41/89/4 42/92/4
f 29/64/5 31/63/5 40/91/5 39/90/5
f 4/72/12 44/71/12 48/88/12 8/95/12
f 8/96/3 48/86/3 45/87/3 6/97/3
f 6/98/11 45/85/11 43/77/11 2/99/11
f 47/74/12 32/73/12 52/100/12 51/101/12
f 2/99/11 43/77/11 46/78/11 30/102/11
f 34/59/12 44/71/12 47/74/12 38/79/12
f 50/103/1 49/104/1 51/105/1 52/106/1
f 46/81/5 47/84/5 51/105/5 49/104/5
f 32/76/4 30/75/4 50/107/4 52/108/4
f 30/102/11 46/78/11 49/109/11 50/110/11
g Cube_Cube_grill2_rough
usemtl grill2_rough
f 15/111/5 16/112/5 14/113/5 13/114/5
