# Blender v2.83.1 OBJ File: 'truck.blend'
# www.blender.org
mtllib truck.mtl
o truck_Cube
v 3.116652 5.934160 -2.710253
v 3.116652 0.574842 -3.330369
v 3.116652 5.934160 3.751414
v 3.116652 0.574842 3.852839
v -3.169149 5.979025 -2.811679
v -3.169149 0.574842 -3.330369
v -3.169149 5.979025 3.852839
v -3.169149 0.574842 3.852839
v 3.116652 2.072748 -3.228943
v -3.169149 2.027884 3.852839
v 3.116652 2.072748 3.751414
v -3.169149 2.027884 -3.330369
v 2.846414 0.799656 -4.207234
v 3.116652 0.574842 -3.333993
v -3.169149 0.574842 -3.333993
v -2.898910 0.799656 -4.207234
v 2.846414 1.515087 -4.207234
v 3.116652 2.027884 -3.333993
v -3.169149 2.027884 -3.333993
v -2.898910 1.515087 -4.207234
v 3.116652 5.979025 -2.811679
v 3.116652 5.979025 3.852839
v 3.116652 2.027884 -3.330369
v 3.116652 2.027884 3.852839
v -3.136896 5.934160 -2.710253
v -3.136896 5.934160 3.751414
v -3.136896 2.072748 -3.228943
v -3.136896 2.072748 3.751414
v 3.116652 0.574842 1.923389
v -3.169149 0.574842 1.923389
v 3.116652 0.640212 1.916951
v -3.169149 0.640212 1.916951
v 3.116652 0.894649 -1.937043
v -3.169149 0.894649 -1.937043
v 3.116652 0.769923 -1.899208
v -3.169149 0.769923 -1.899208
v 3.116652 1.254477 -2.296871
v -3.169149 1.254477 -2.296871
v 3.116652 1.193036 -2.181923
v -3.169149 1.193035 -2.181923
v 3.116652 1.110350 -2.081170
v -3.169149 1.110350 -2.081170
v -3.169149 0.574842 -1.892870
v 3.116652 0.574842 -1.892870
v 3.116652 0.640213 -1.886432
v -3.169149 0.640212 -1.886432
v 3.116652 1.292312 -2.421597
v -3.169149 1.292312 -2.421597
v 3.116652 0.769922 -3.203407
v -3.169149 0.769922 -3.203407
v 3.116652 0.640212 -3.216182
v -3.169149 0.640212 -3.216182
v 3.116652 0.769922 1.929726
v -3.169149 0.769922 1.929726
v 3.116652 0.894648 1.967561
v -3.169149 0.894647 1.967561
v 3.116653 1.292312 2.452115
v -3.169149 1.292311 2.452115
v 3.116653 1.305087 2.581825
v -3.169149 1.305087 2.581825
v 3.116652 1.009597 -1.998484
v -3.169149 1.009597 -1.998484
v 3.116653 1.254477 2.836262
v -3.169149 1.254477 2.836262
v 3.116653 1.193036 2.951211
v -3.169149 1.193035 2.951211
v 3.116653 0.769923 3.233925
v -3.169149 0.769923 3.233925
v 3.116653 1.110350 3.051963
v -3.169149 1.110350 3.051963
v 3.116653 1.292312 2.711536
v -3.169149 1.292312 2.711536
v 3.116653 1.254477 2.327389
v -3.169149 1.254476 2.327389
v 3.116653 1.009596 2.029002
v -3.169149 1.009596 2.029002
v 3.116653 1.193035 2.212440
v -3.169149 1.193035 2.212440
v 3.116653 1.110349 2.111688
v -3.169149 1.110349 2.111688
v 3.116652 0.640213 3.246701
v -3.169149 0.640212 3.246701
v 3.116652 0.574842 3.240262
v -3.169149 0.574842 3.240262
v 3.116652 0.574842 -3.209743
v 3.116652 1.009596 -3.104131
v -3.169149 1.009596 -3.104131
v 3.116652 0.894648 -3.165572
v -3.169149 0.894647 -3.165572
v 3.116652 1.254477 -2.805744
v -3.169149 1.254476 -2.805744
v 3.116652 1.193035 -2.920692
v -3.169149 1.193035 -2.920692
v 3.116652 1.110349 -3.021445
v -3.169149 1.110349 -3.021445
v -3.169148 0.574842 -3.209743
v 3.116652 1.305087 -2.551308
v -3.169149 1.305087 -2.551308
v 3.116652 1.292312 -2.681019
v -3.169149 1.292311 -2.681019
v 3.116653 1.009598 3.134649
v -3.169149 1.009597 3.134649
v 3.116653 0.894649 3.196090
v -3.169149 0.894649 3.196090
v 2.883927 4.386416 -2.918156
v 2.883927 2.264248 -3.203220
v 2.883927 2.264248 -3.299340
v 2.883927 5.567863 -2.759457
v 2.883927 5.567863 -2.865655
v -2.883927 5.567863 -2.759457
v -2.883927 5.567863 -2.865655
v -2.883927 2.264248 -3.203219
v -2.883927 2.264248 -3.299340
v -3.025439 0.673127 -4.207234
v 2.972943 0.673127 -4.207234
v 2.972943 1.641616 -4.207234
v -3.025439 1.641616 -4.207234
vt 0.625000 0.500000
vt 0.875000 0.500000
vt 0.875000 0.750000
vt 0.625000 0.750000
vt 0.489326 0.750000
vt 0.625000 1.000000
vt 0.489326 1.000000
vt 0.489326 0.000000
vt 0.625000 0.000000
vt 0.625000 0.250000
vt 0.489326 0.250000
vt 0.125000 0.500000
vt 0.375000 0.500000
vt 0.375000 0.504198
vt 0.125000 0.504198
vt 0.621470 0.746470
vt 0.492856 0.746470
vt 0.492856 0.746470
vt 0.621470 0.746470
vt 0.497442 0.261344
vt 0.497442 0.490744
vt 0.489326 0.500000
vt 0.489326 0.500000
vt 0.489326 0.250000
vt 0.375000 0.750000
vt 0.375000 0.728680
vt 0.380143 0.728906
vt 0.390349 0.728458
vt 0.400163 0.727143
vt 0.409207 0.725004
vt 0.417134 0.722126
vt 0.423640 0.718620
vt 0.428474 0.714619
vt 0.431451 0.710279
vt 0.432456 0.705764
vt 0.431451 0.701250
vt 0.428474 0.696909
vt 0.423640 0.692909
vt 0.417134 0.689402
vt 0.409207 0.686524
vt 0.400163 0.684386
vt 0.390349 0.683069
vt 0.380143 0.682625
vt 0.375000 0.682849
vt 0.375000 0.550030
vt 0.380143 0.550254
vt 0.390349 0.549809
vt 0.400163 0.548493
vt 0.409207 0.546354
vt 0.417134 0.543476
vt 0.423640 0.539970
vt 0.428474 0.535969
vt 0.431451 0.531628
vt 0.432456 0.527114
vt 0.431451 0.522600
vt 0.428474 0.518259
vt 0.423640 0.514258
vt 0.417134 0.510751
vt 0.409207 0.507874
vt 0.400163 0.505736
vt 0.390349 0.504419
vt 0.380143 0.503974
vt 0.375000 0.000000
vt 0.375000 0.250000
vt 0.375000 0.245802
vt 0.380143 0.246026
vt 0.390349 0.245581
vt 0.400162 0.244264
vt 0.409207 0.242126
vt 0.417134 0.239248
vt 0.423640 0.235742
vt 0.428474 0.231741
vt 0.431451 0.227400
vt 0.432456 0.222886
vt 0.431451 0.218372
vt 0.428474 0.214031
vt 0.423640 0.210030
vt 0.417134 0.206524
vt 0.409207 0.203646
vt 0.400163 0.201507
vt 0.390349 0.200191
vt 0.380143 0.199746
vt 0.375000 0.199970
vt 0.375000 0.067151
vt 0.380143 0.067376
vt 0.390349 0.066931
vt 0.400163 0.065614
vt 0.409207 0.063476
vt 0.417134 0.060598
vt 0.423640 0.057091
vt 0.428474 0.053091
vt 0.431451 0.048750
vt 0.432456 0.044235
vt 0.431451 0.039721
vt 0.428474 0.035381
vt 0.423640 0.031380
vt 0.417134 0.027873
vt 0.409207 0.024995
vt 0.400163 0.022857
vt 0.390349 0.021541
vt 0.380143 0.021094
vt 0.375000 0.021320
vt 0.375000 1.000000
vt 0.375000 0.500000
vt 0.412387 0.284383
vt 0.451939 0.284383
vt 0.451939 0.465617
vt 0.412387 0.465617
vt 0.375000 0.250000
vt 0.125000 0.500000
vt 0.155392 0.500000
vt 0.344608 0.500000
vt 0.405392 0.469608
vt 0.458934 0.469608
vt 0.458934 0.280392
vt 0.405392 0.280392
vt 0.621470 0.503530
vt 0.492856 0.503530
vt 0.492856 0.503530
vt 0.621470 0.503530
vt 0.569919 0.503530
vt 0.499234 0.503530
vt 0.499234 0.503530
vt 1.000000 0.922261
vt 1.000000 0.574837
vt 0.984251 0.574837
vt 0.984251 0.922261
vt 0.218750 0.574837
vt 0.218750 0.922261
vt 0.250000 0.922261
vt 0.250000 0.574837
vt 0.000000 0.574837
vt 0.000000 0.922261
vt 0.031250 0.922261
vt 0.031250 0.574837
vt 0.468750 0.574837
vt 0.468750 0.922261
vt 0.500000 0.922261
vt 0.500000 0.574837
vt 0.156250 0.574837
vt 0.156250 0.922261
vt 0.187500 0.922261
vt 0.187500 0.574837
vt 0.515749 0.922261
vt 0.515749 0.574837
vt 0.031250 0.574837
vt 0.031250 0.922261
vt 0.062500 0.922261
vt 0.062500 0.574837
vt 0.062500 0.922261
vt 0.062500 0.574837
vt 0.375000 0.574837
vt 0.375000 0.922261
vt 0.406250 0.922261
vt 0.406250 0.574837
vt 0.343750 0.574837
vt 0.343750 0.922261
vt 0.093750 0.922261
vt 0.093750 0.574837
vt 0.406250 0.574837
vt 0.406250 0.922261
vt 0.437500 0.922261
vt 0.437500 0.574837
vt 0.250000 0.574837
vt 0.250000 0.922261
vt 0.281250 0.922261
vt 0.281250 0.574837
vt 0.312500 0.574837
vt 0.312500 0.922261
vt 0.125000 0.922261
vt 0.125000 0.574837
vt 0.187500 0.574837
vt 0.187500 0.922261
vt 0.218750 0.922261
vt 0.218750 0.574837
vt 0.156250 0.922261
vt 0.156250 0.574837
vt 0.093750 0.574837
vt 0.093750 0.922261
vt 0.125000 0.922261
vt 0.125000 0.574837
vt 0.375000 0.574837
vt 0.375000 0.922261
vt 0.500000 0.574837
vt 0.500000 0.922261
vt 0.515749 0.922261
vt 0.515749 0.574837
vt 0.312500 0.574837
vt 0.312500 0.922261
vt 0.343750 0.922261
vt 0.343750 0.574837
vt 1.000000 0.922261
vt 1.000000 0.574837
vt 0.984251 0.574837
vt 0.984251 0.922261
vt 0.281250 0.922261
vt 0.281250 0.574837
vt 0.437500 0.574837
vt 0.437500 0.922261
vt 0.468750 0.922261
vt 0.468750 0.574837
vt 0.000000 0.574837
vt 0.000000 0.922261
vt 0.125000 0.550030
vt 0.125000 0.682849
vt 0.125000 0.728680
vt 0.125000 0.750000
vt 0.375000 0.541758
vt 0.375000 0.553773
vt 0.535594 0.589406
vt 0.625000 0.609243
vt 0.625000 0.595968
vt 0.609270 0.503530
vt 0.609270 0.503530
vt 0.610882 0.490744
vt 0.610882 0.261344
vt 0.375000 0.196227
vt 0.375000 0.208242
vt 0.625000 0.154032
vt 0.625000 0.140757
vt 0.125000 0.541758
vt 0.125000 0.553773
vt 0.875000 0.609243
vt 0.875000 0.595968
vn 0.0000 1.0000 0.0000
vn 0.0000 0.0000 1.0000
vn -1.0000 0.0000 0.0000
vn 0.0000 -1.0000 0.0000
vn 0.0000 0.0000 -1.0000
vn 0.0000 0.1302 -0.9915
vn 1.0000 0.0000 0.0000
vn 0.0000 -0.9937 -0.1118
vn 0.9867 0.0000 -0.1624
vn -0.9867 0.0000 -0.1624
vn 0.0000 0.9145 -0.4045
vn 0.0000 -0.1331 0.9911
vn -0.0000 0.0980 0.9952
vn 0.0000 -0.9952 0.0980
vn -0.0000 -0.0980 0.9952
vn 0.0000 -0.0980 -0.9952
vn 0.0000 -0.8819 0.4714
vn 0.0000 0.0980 -0.9952
vn 0.0000 -0.2903 0.9569
vn 0.0000 -0.6344 -0.7730
vn 0.0000 -0.7730 -0.6344
vn 0.0000 -0.4714 0.8819
vn 0.0000 -0.4714 -0.8819
vn 0.0000 -0.9952 -0.0980
vn 0.0000 -0.8819 -0.4714
vn 0.0000 -0.6344 0.7730
vn 0.0000 -0.9569 0.2903
vn 0.0000 -0.7730 0.6344
vn 0.0000 -0.9569 -0.2903
vn 0.0000 -0.2903 -0.9569
g truck_Cube_Material
usemtl Material
s off
f 21/1/1 5/2/1 7/3/1 22/4/1
f 24/5/2 22/4/2 7/6/2 10/7/2
f 10/8/3 7/9/3 5/10/3 12/11/3
f 6/12/4 2/13/4 85/14/4 96/15/4
f 3/16/5 11/17/5 28/18/5 26/19/5
f 12/11/6 113/20/6 107/21/6 23/22/6
f 12/11/1 23/22/1 18/23/1 19/24/1
f 2/13/7 23/22/7 24/5/7 4/25/7 83/26/7 81/27/7 67/28/7 103/29/7 101/30/7 69/31/7 65/32/7 63/33/7 71/34/7 59/35/7 57/36/7 73/37/7 77/38/7 79/39/7 75/40/7 55/41/7 53/42/7 31/43/7 29/44/7 44/45/7 45/46/7 35/47/7 33/48/7 61/49/7 41/50/7 39/51/7 37/52/7 47/53/7 97/54/7 99/55/7 90/56/7 92/57/7 94/58/7 86/59/7 88/60/7 49/61/7 51/62/7 85/14/7
f 8/63/3 10/8/3 12/11/3 6/64/3 96/65/3 52/66/3 50/67/3 89/68/3 87/69/3 95/70/3 93/71/3 91/72/3 100/73/3 98/74/3 48/75/3 38/76/3 40/77/3 42/78/3 62/79/3 34/80/3 36/81/3 46/82/3 43/83/3 30/84/3 32/85/3 54/86/3 56/87/3 76/88/3 80/89/3 78/90/3 74/91/3 58/92/3 60/93/3 72/94/3 64/95/3 66/96/3 70/97/3 102/98/3 104/99/3 68/100/3 82/101/3 84/102/3
f 4/25/2 24/5/2 10/7/2 8/103/2
f 23/22/7 2/13/7 14/104/7 18/23/7
f 16/105/5 20/106/5 17/107/5 13/108/5
f 6/64/3 12/11/3 19/24/3 15/109/3
f 14/104/8 15/110/8 114/111/8 115/112/8
f 18/23/9 14/104/9 115/113/9 116/114/9
f 117/115/10 114/116/10 15/109/10 19/24/10
f 19/24/11 18/23/11 116/114/11 117/115/11
f 2/13/4 6/12/4 15/110/4 14/104/4
f 3/16/7 1/117/7 21/1/7 22/4/7
f 1/117/7 9/118/7 23/22/7 21/1/7
f 11/17/7 3/16/7 22/4/7 24/5/7
f 9/118/7 11/17/7 24/5/7 23/22/7
f 27/119/7 25/120/7 26/19/7 28/18/7
f 1/117/4 3/16/4 26/19/4 25/120/4
f 11/17/1 9/118/1 27/119/1 28/18/1
f 9/118/12 1/117/12 105/121/12 106/122/12 112/123/12 27/119/12
f 31/124/13 32/125/13 30/126/13 29/127/13
f 100/128/14 99/129/14 97/130/14 98/131/14
f 52/132/15 51/133/15 49/134/15 50/135/15
f 36/136/16 35/137/16 45/138/16 46/139/16
f 93/140/17 92/141/17 90/142/17 91/143/17
f 46/139/18 45/138/18 44/144/18 43/145/18
f 54/146/19 53/147/19 55/148/19 56/149/19
f 50/135/19 49/134/19 88/150/19 89/151/19
f 70/152/20 69/153/20 101/154/20 102/155/20
f 66/156/21 65/157/21 69/153/21 70/152/21
f 56/149/22 55/148/22 75/158/22 76/159/22
f 62/160/23 61/161/23 33/162/23 34/163/23
f 60/164/24 59/165/24 71/166/24 72/167/24
f 64/168/25 63/169/25 65/157/25 66/156/25
f 76/159/26 75/158/26 79/170/26 80/171/26
f 74/172/27 73/173/27 57/174/27 58/175/27
f 80/171/28 79/170/28 77/176/28 78/177/28
f 87/178/26 86/179/26 94/180/26 95/181/26
f 72/167/29 71/166/29 63/169/29 64/168/29
f 58/175/14 57/174/14 59/165/14 60/164/14
f 91/143/27 90/142/27 99/129/27 100/128/27
f 42/182/20 41/183/20 61/161/20 62/160/20
f 82/184/18 81/185/18 83/186/18 84/187/18
f 38/188/25 37/189/25 39/190/25 40/191/25
f 51/192/13 52/193/13 96/194/13 85/195/13
f 78/177/17 77/176/17 73/173/17 74/172/17
f 98/131/24 97/130/24 47/196/24 48/197/24
f 104/198/30 103/199/30 67/200/30 68/201/30
f 34/163/30 33/162/30 35/137/30 36/136/30
f 89/151/22 88/150/22 86/179/22 87/178/22
f 48/197/29 47/196/29 37/189/29 38/188/29
f 95/181/28 94/180/28 92/141/28 93/140/28
f 32/202/15 31/203/15 53/147/15 54/146/15
f 102/155/23 101/154/23 103/199/23 104/198/23
f 43/204/4 44/45/4 29/44/4 30/205/4
f 84/206/4 83/26/4 4/25/4 8/207/4
f 68/201/16 67/200/16 81/185/16 82/184/16
f 40/191/21 39/190/21 41/183/21 42/182/21
f 107/208/3 106/209/3 105/210/3 108/211/3 109/212/3
f 27/119/12 112/123/12 110/213/12 108/214/12 105/121/12 1/117/12 25/120/12
f 23/22/6 107/21/6 109/215/6 111/216/6 113/20/6 12/11/6 5/10/6 21/1/6
f 112/217/7 113/218/7 111/219/7 110/220/7
f 113/221/1 112/222/1 106/209/1 107/208/1
f 109/212/4 108/211/4 110/223/4 111/224/4
f 16/105/5 13/108/5 115/113/5 114/116/5
f 13/108/5 17/107/5 116/114/5 115/113/5
f 20/106/5 16/105/5 114/116/5 117/115/5
f 17/107/5 20/106/5 117/115/5 116/114/5
