# Blender v2.83.1 OBJ File: 'rock2.blend'
# www.blender.org
mtllib rock2.mtl
o Icosphere
v 0.000000 -0.006121 0.000000
v 0.910389 0.531519 0.816337
v -0.321943 0.579299 1.211062
v -1.113940 0.550519 0.000000
v -0.332485 0.576628 -1.279455
v 0.884525 0.550366 -0.784006
v 0.369614 1.483760 1.296884
v -0.951681 1.558449 0.862474
v -0.674070 1.385103 -0.584141
v 0.349474 1.447847 -1.308300
v 1.428700 1.628255 -0.021769
v -0.082858 2.325559 -0.028037
v -0.202326 0.144266 0.765725
v 0.451731 0.270365 0.403577
v 0.327383 0.471449 1.238972
v 1.098500 0.398135 0.002927
v 0.529707 0.144266 -0.473240
v -0.654756 0.144269 0.000000
v -0.857087 0.471451 0.765727
v -0.202326 0.144266 -0.765725
v -0.857087 0.471451 -0.765727
v 0.313155 0.488772 -1.235692
v 1.535575 0.952529 0.593034
v 1.196625 0.998077 -0.479464
v 0.037364 1.013257 1.208286
v 0.779196 0.990260 1.336338
v -1.184470 1.000855 0.473242
v -0.732042 1.000855 1.238980
v -0.732042 1.000855 -1.238980
v -0.989220 1.018419 -0.391907
v 0.683365 1.006956 -1.256635
v 0.000412 1.002887 -1.269392
v 0.961818 1.705580 0.842315
v -0.279498 1.474899 0.961598
v -0.875934 1.474628 0.022501
v -0.255496 1.449961 -1.010480
v 0.951466 1.688907 -0.890411
v 0.217103 2.184926 0.884581
v 0.790091 2.425339 -0.066055
v -0.479649 1.732210 0.506361
v -0.536932 1.845761 -0.457559
v 0.182364 2.053712 -0.913552
vt 0.893609 0.468169
vt 0.825977 0.515855
vt 0.916703 0.571427
vt 0.758344 0.563540
vt 0.735250 0.460282
vt 0.667618 0.507967
vt 0.167796 0.023589
vt 0.100163 0.071274
vt 0.190890 0.126847
vt 0.349249 0.134734
vt 0.281617 0.182419
vt 0.372344 0.237992
vt 0.530702 0.245879
vt 0.463070 0.293564
vt 0.553797 0.349137
vt 0.690712 0.611225
vt 0.939798 0.674685
vt 0.849071 0.619112
vt 0.872165 0.722370
vt 0.213984 0.230105
vt 0.123258 0.174532
vt 0.146352 0.277789
vt 0.395438 0.341250
vt 0.304711 0.285677
vt 0.327805 0.388934
vt 0.576891 0.452395
vt 0.486164 0.396822
vt 0.509259 0.500080
vt 0.781439 0.666797
vt 0.962893 0.777943
vt 0.237079 0.333362
vt 0.418532 0.444507
vt 0.599986 0.555652
vt 0.804533 0.770055
vt 0.713807 0.714482
vt 0.736901 0.817740
vt 0.985987 0.881200
vt 0.895260 0.825627
vt 0.918355 0.928885
vt 0.260173 0.436619
vt 0.169447 0.381047
vt 0.192541 0.484305
vt 0.441627 0.547764
vt 0.350900 0.492192
vt 0.373994 0.595450
vt 0.623080 0.658910
vt 0.532353 0.603337
vt 0.555448 0.706595
vt 0.464721 0.651022
vt 0.487815 0.754280
vt 0.283268 0.539877
vt 0.306362 0.643135
vt 0.101814 0.428732
vt 0.124908 0.531990
vt 0.078720 0.325474
vt 0.827627 0.873312
vt 0.850722 0.976570
vt 0.646174 0.762167
vt 0.669268 0.865425
vt 0.055625 0.222217
vt 0.032531 0.118959
vt 0.644523 0.404709
vt 0.712156 0.357024
vn 0.3213 -0.9096 0.2635
vn 0.3212 -0.9199 0.2251
vn -0.2219 -0.9662 0.1311
vn -0.2219 -0.9662 -0.1311
vn 0.0854 -0.9732 -0.2137
vn 0.6018 -0.7542 0.2628
vn -0.0368 0.0369 0.9986
vn -0.8791 -0.4038 0.2532
vn -0.5676 -0.4701 -0.6759
vn 0.5844 -0.4450 -0.6786
vn 0.5793 -0.5332 0.6165
vn 0.0403 -0.0270 0.9988
vn -0.9729 0.0767 -0.2180
vn -0.0416 0.0560 -0.9976
vn 0.8164 -0.2008 -0.5415
vn 0.3833 0.5287 0.7573
vn 0.0384 0.8771 0.4789
vn -0.8708 0.3532 -0.3419
vn -0.3995 0.4205 -0.8146
vn 0.7364 0.5697 -0.3648
vn -0.1214 0.9381 -0.3243
vn 0.3632 0.7290 -0.5802
vn 0.2968 0.5774 -0.7606
vn -0.4731 0.7924 -0.3850
vn -0.5607 0.5112 -0.6513
vn -0.6893 0.3755 -0.6196
vn -0.7723 0.6240 0.1194
vn -0.6450 0.7535 0.1271
vn -0.4261 0.8956 -0.1278
vn -0.6317 0.7076 0.3167
vn -0.6422 0.5111 0.5713
vn -0.4273 0.3874 0.8169
vn -0.1037 0.9773 0.1847
vn 0.4937 0.7246 0.4808
vn 0.7252 0.5998 0.3382
vn 0.8769 0.0257 -0.4800
vn 0.8339 -0.0319 -0.5511
vn 0.4769 0.2629 -0.8387
vn -0.4260 0.2583 -0.8671
vn -0.0376 0.4846 -0.8739
vn -0.5214 0.7553 -0.3970
vn -0.7940 0.5048 -0.3387
vn -0.8962 0.3989 -0.1942
vn -0.8816 0.4552 -0.1249
vn -0.0560 0.5435 0.8375
vn 0.0270 0.4855 0.8738
vn -0.4550 0.1562 0.8767
vn 0.4427 0.4303 0.7867
vn 0.6776 0.2929 0.6746
vn 0.7911 0.4753 0.3849
vn 0.0192 -0.1020 -0.9946
vn 0.0190 -0.0539 -0.9984
vn 0.0640 -0.0264 -0.9976
vn -0.7953 0.5510 -0.2529
vn -0.9565 -0.0331 -0.2897
vn -0.9484 -0.0126 -0.3168
vn -0.8609 0.0043 0.5087
vn -0.8350 -0.2438 0.4933
vn -0.4835 -0.5171 0.7063
vn -0.1717 -0.0639 0.9831
vn -0.1711 -0.0358 0.9846
vn 0.5194 -0.5715 0.6353
vn 0.9442 -0.1271 -0.3038
vn 0.8775 -0.3794 -0.2934
vn 0.8658 -0.3918 -0.3112
vn 0.4537 -0.7567 -0.4708
vn 0.1785 -0.8766 -0.4468
vn -0.0620 -0.7713 -0.6334
vn -0.3766 -0.7536 -0.5388
vn -0.4322 -0.8649 -0.2554
vn -0.6558 -0.7412 -0.1434
vn -0.6558 -0.7412 0.1434
vn -0.4322 -0.8649 0.2554
vn -0.3569 -0.7143 0.6019
vn 0.5892 -0.7482 -0.3050
vn 0.2865 -0.9444 0.1613
vn 0.4032 -0.9001 0.1653
vn -0.1496 -0.7271 0.6701
vn 0.3227 -0.9082 0.2666
vn 0.2865 -0.9209 0.2643
g Icosphere_Icosphere_Material.001
usemtl Material.001
s off
f 1/1/1 14/2/1 13/3/1
f 2/4/2 14/5/2 16/6/2
f 1/7/3 13/8/3 18/9/3
f 1/10/4 18/11/4 20/12/4
f 1/13/5 20/14/5 17/15/5
f 2/4/6 16/6/6 23/16/6
f 3/17/7 15/18/7 25/19/7
f 4/20/8 19/21/8 27/22/8
f 5/23/9 21/24/9 29/25/9
f 6/26/10 22/27/10 31/28/10
f 2/4/11 23/16/11 26/29/11
f 3/17/12 25/19/12 28/30/12
f 4/20/13 27/22/13 30/31/13
f 5/23/14 29/25/14 32/32/14
f 6/26/15 31/28/15 24/33/15
f 7/34/16 33/35/16 38/36/16
f 8/37/17 34/38/17 40/39/17
f 9/40/18 35/41/18 41/42/18
f 10/43/19 36/44/19 42/45/19
f 11/46/20 37/47/20 39/48/20
f 39/48/21 42/49/21 12/50/21
f 39/48/22 37/47/22 42/49/22
f 37/47/23 10/43/23 42/49/23
f 42/45/24 41/51/24 12/52/24
f 42/45/25 36/44/25 41/51/25
f 36/44/26 9/40/26 41/51/26
f 41/42/27 40/53/27 12/54/27
f 41/42/28 35/41/28 40/53/28
f 35/41/29 8/55/29 40/53/29
f 40/39/30 38/56/30 12/57/30
f 40/39/31 34/38/31 38/56/31
f 34/38/32 7/34/32 38/56/32
f 38/36/33 39/58/33 12/59/33
f 38/36/34 33/35/34 39/58/34
f 33/35/35 11/46/35 39/58/35
f 24/33/36 37/47/36 11/46/36
f 24/33/37 31/28/37 37/47/37
f 31/28/38 10/43/38 37/47/38
f 32/32/39 36/44/39 10/43/39
f 32/32/40 29/25/40 36/44/40
f 29/25/41 9/40/41 36/44/41
f 30/31/42 35/41/42 9/40/42
f 30/31/43 27/22/43 35/41/43
f 27/22/44 8/55/44 35/41/44
f 28/30/45 34/38/45 8/37/45
f 28/30/46 25/19/46 34/38/46
f 25/19/47 7/34/47 34/38/47
f 26/29/48 33/35/48 7/34/48
f 26/29/49 23/16/49 33/35/49
f 23/16/50 11/46/50 33/35/50
f 31/28/51 32/32/51 10/43/51
f 31/28/52 22/27/52 32/32/52
f 22/27/53 5/23/53 32/32/53
f 29/25/54 30/31/54 9/40/54
f 29/25/55 21/24/55 30/31/55
f 21/24/56 4/20/56 30/31/56
f 27/22/57 28/60/57 8/55/57
f 27/22/58 19/21/58 28/60/58
f 19/21/59 3/61/59 28/60/59
f 25/19/60 26/29/60 7/34/60
f 25/19/61 15/18/61 26/29/61
f 15/18/62 2/4/62 26/29/62
f 23/16/63 24/33/63 11/46/63
f 23/16/64 16/6/64 24/33/64
f 16/6/65 6/26/65 24/33/65
f 17/15/66 22/27/66 6/26/66
f 17/15/67 20/14/67 22/27/67
f 20/14/68 5/23/68 22/27/68
f 20/12/69 21/24/69 5/23/69
f 20/12/70 18/11/70 21/24/70
f 18/11/71 4/20/71 21/24/71
f 18/9/72 19/21/72 4/20/72
f 18/9/73 13/8/73 19/21/73
f 13/8/74 3/61/74 19/21/74
f 16/6/75 17/62/75 6/26/75
f 16/6/76 14/5/76 17/62/76
f 14/5/77 1/63/77 17/62/77
f 13/3/78 15/18/78 3/17/78
f 13/3/79 14/2/79 15/18/79
f 14/2/80 2/4/80 15/18/80
