# Blender v2.83.1 OBJ File: 'rock1.blend'
# www.blender.org
mtllib rock1.mtl
o Icosphere
v 0.000000 -0.003508 0.000000
v 0.910389 0.208610 0.533043
v -0.321943 0.227461 0.790787
v -1.113940 0.216106 0.000000
v -0.344220 0.216104 -0.850649
v 0.902427 0.215333 -0.526711
v 0.350115 0.583226 0.885334
v -0.965166 0.615355 0.568263
v -0.726218 0.547117 -0.448261
v 0.346942 0.579963 -0.872586
v 1.237573 0.623281 -0.011681
v -0.030842 0.877764 -0.012186
v -0.202326 0.055825 0.499995
v 0.451731 0.105575 0.263524
v 0.327383 0.184910 0.809012
v 1.098500 0.155985 0.001912
v 0.529707 0.055825 -0.309011
v -0.654756 0.055826 0.000000
v -0.857088 0.184911 0.499997
v -0.202326 0.055825 -0.499995
v -0.857088 0.184911 -0.499997
v 0.327383 0.184910 -0.809012
v 1.192847 0.392953 0.311696
v 1.196625 0.392683 -0.313076
v 0.013204 0.395466 0.795446
v 0.740081 0.392342 0.824470
v -1.184470 0.393779 0.309013
v -0.732042 0.393779 0.809017
v -0.732042 0.393779 -0.809017
v -0.989220 0.400709 -0.255903
v 0.744477 0.392015 -0.831418
v 0.000412 0.394581 -0.828875
v 0.971451 0.679216 0.577974
v -0.276134 0.592711 0.685992
v -0.893071 0.584510 0.012324
v -0.255496 0.570967 -0.659813
v 0.951466 0.665239 -0.581412
v 0.217103 0.860936 0.577605
v 0.746310 0.920544 -0.036683
v -0.530038 0.733235 0.309817
v -0.529707 0.731733 -0.309011
v 0.197558 0.779204 -0.541587
vt 0.818181 0.000000
vt 0.772726 0.078731
vt 0.863635 0.078731
vt 0.727272 0.157461
vt 0.681818 0.078731
vt 0.636363 0.157461
vt 0.090909 0.000000
vt 0.045454 0.078731
vt 0.136363 0.078731
vt 0.272727 0.000000
vt 0.227273 0.078731
vt 0.318182 0.078731
vt 0.454545 0.000000
vt 0.409090 0.078731
vt 0.500000 0.078731
vt 0.681818 0.236191
vt 0.909090 0.157461
vt 0.818181 0.157461
vt 0.863635 0.236191
vt 0.181818 0.157461
vt 0.090909 0.157461
vt 0.136363 0.236191
vt 0.363636 0.157461
vt 0.272727 0.157461
vt 0.318182 0.236191
vt 0.545454 0.157461
vt 0.454545 0.157461
vt 0.500000 0.236191
vt 0.772726 0.236191
vt 0.954545 0.236191
vt 0.227273 0.236191
vt 0.409090 0.236191
vt 0.590909 0.236191
vt 0.818181 0.314921
vt 0.727272 0.314921
vt 0.772726 0.393651
vt 1.000000 0.314921
vt 0.909091 0.314921
vt 0.954545 0.393651
vt 0.272727 0.314921
vt 0.181818 0.314921
vt 0.227273 0.393651
vt 0.454545 0.314921
vt 0.363636 0.314921
vt 0.409090 0.393651
vt 0.636363 0.314921
vt 0.545454 0.314921
vt 0.590909 0.393651
vt 0.500000 0.393651
vt 0.545454 0.472382
vt 0.318182 0.393651
vt 0.363636 0.472382
vt 0.136363 0.393651
vt 0.181818 0.472382
vt 0.090909 0.314921
vt 0.863635 0.393651
vt 0.909090 0.472382
vt 0.681818 0.393651
vt 0.727272 0.472382
vt 0.045454 0.236191
vt 0.000000 0.157461
vt 0.590909 0.078731
vt 0.636363 0.000000
vn 0.1360 -0.9759 0.1708
vn 0.1350 -0.9802 0.1449
vn -0.0900 -0.9926 0.0814
vn -0.0900 -0.9926 -0.0814
vn 0.0343 -0.9907 -0.1314
vn 0.6768 -0.6695 0.3060
vn -0.0264 0.0250 0.9993
vn -0.6263 -0.7290 0.2762
vn -0.3812 -0.6870 -0.6186
vn 0.3312 -0.7316 -0.5959
vn 0.7067 -0.3341 0.6236
vn 0.0183 -0.0642 0.9978
vn -0.9294 0.1858 -0.3189
vn -0.0269 0.1721 -0.9847
vn 0.6851 -0.4173 -0.5971
vn 0.1847 0.7680 0.6132
vn -0.0325 0.9289 0.3689
vn -0.5539 0.7893 -0.2648
vn -0.2141 0.7912 -0.5729
vn 0.5149 0.8343 -0.1971
vn -0.0603 0.9763 -0.2078
vn 0.1181 0.9155 -0.3846
vn 0.1067 0.8724 -0.4770
vn -0.1391 0.9610 -0.2389
vn -0.2275 0.8056 -0.5470
vn -0.2994 0.7569 -0.5809
vn -0.2796 0.9601 -0.0025
vn -0.3774 0.9261 -0.0024
vn -0.3114 0.9457 -0.0929
vn -0.2072 0.9715 0.1148
vn -0.3201 0.7962 0.5135
vn -0.2138 0.6775 0.7038
vn -0.0533 0.9973 0.0509
vn 0.2244 0.9322 0.2838
vn 0.5065 0.8495 0.1480
vn 0.8417 0.3676 -0.3956
vn 0.7532 0.0306 -0.6571
vn 0.3186 0.4971 -0.8071
vn -0.3131 0.3800 -0.8704
vn -0.0207 0.6760 -0.7366
vn -0.2159 0.8999 -0.3790
vn -0.6161 0.7351 -0.2829
vn -0.6852 0.6916 -0.2283
vn -0.6288 0.7676 -0.1241
vn -0.1015 0.6811 0.7251
vn 0.0146 0.5015 0.8651
vn -0.3010 0.0855 0.9498
vn 0.3437 0.4370 0.8312
vn 0.7491 -0.0359 0.6614
vn 0.8697 0.3373 0.3605
vn -0.0041 -0.2222 -0.9750
vn -0.0037 -0.1001 -0.9950
vn 0.0620 0.0021 -0.9981
vn -0.6213 0.7247 -0.2980
vn -0.9043 -0.0792 -0.4195
vn -0.8899 -0.0299 -0.4553
vn -0.7405 -0.0511 0.6701
vn -0.6501 -0.4811 0.5882
vn -0.2737 -0.7419 0.6122
vn -0.0386 -0.3743 0.9265
vn -0.0399 0.0049 0.9992
vn 0.3284 -0.7005 0.6336
vn 0.9832 -0.1825 0.0060
vn 0.9264 -0.3764 0.0058
vn 0.6481 -0.6920 -0.3181
vn 0.2071 -0.9237 -0.3223
vn 0.0722 -0.9583 -0.2766
vn -0.0169 -0.9119 -0.4100
vn -0.1814 -0.9201 -0.3472
vn -0.1905 -0.9664 -0.1724
vn -0.3276 -0.9384 -0.1097
vn -0.3276 -0.9384 0.1097
vn -0.1905 -0.9664 0.1724
vn -0.1730 -0.8777 0.4469
vn 0.2792 -0.9373 -0.2088
vn 0.1182 -0.9877 0.1019
vn 0.1730 -0.9789 0.1086
vn -0.0707 -0.8715 0.4853
vn 0.1367 -0.9754 0.1730
vn 0.1201 -0.9782 0.1696
g Icosphere_Icosphere_Material.001
usemtl Material.001
s off
f 1/1/1 14/2/1 13/3/1
f 2/4/2 14/5/2 16/6/2
f 1/7/3 13/8/3 18/9/3
f 1/10/4 18/11/4 20/12/4
f 1/13/5 20/14/5 17/15/5
f 2/4/6 16/6/6 23/16/6
f 3/17/7 15/18/7 25/19/7
f 4/20/8 19/21/8 27/22/8
f 5/23/9 21/24/9 29/25/9
f 6/26/10 22/27/10 31/28/10
f 2/4/11 23/16/11 26/29/11
f 3/17/12 25/19/12 28/30/12
f 4/20/13 27/22/13 30/31/13
f 5/23/14 29/25/14 32/32/14
f 6/26/15 31/28/15 24/33/15
f 7/34/16 33/35/16 38/36/16
f 8/37/17 34/38/17 40/39/17
f 9/40/18 35/41/18 41/42/18
f 10/43/19 36/44/19 42/45/19
f 11/46/20 37/47/20 39/48/20
f 39/48/21 42/49/21 12/50/21
f 39/48/22 37/47/22 42/49/22
f 37/47/23 10/43/23 42/49/23
f 42/45/24 41/51/24 12/52/24
f 42/45/25 36/44/25 41/51/25
f 36/44/26 9/40/26 41/51/26
f 41/42/27 40/53/27 12/54/27
f 41/42/28 35/41/28 40/53/28
f 35/41/29 8/55/29 40/53/29
f 40/39/30 38/56/30 12/57/30
f 40/39/31 34/38/31 38/56/31
f 34/38/32 7/34/32 38/56/32
f 38/36/33 39/58/33 12/59/33
f 38/36/34 33/35/34 39/58/34
f 33/35/35 11/46/35 39/58/35
f 24/33/36 37/47/36 11/46/36
f 24/33/37 31/28/37 37/47/37
f 31/28/38 10/43/38 37/47/38
f 32/32/39 36/44/39 10/43/39
f 32/32/40 29/25/40 36/44/40
f 29/25/41 9/40/41 36/44/41
f 30/31/42 35/41/42 9/40/42
f 30/31/43 27/22/43 35/41/43
f 27/22/44 8/55/44 35/41/44
f 28/30/45 34/38/45 8/37/45
f 28/30/46 25/19/46 34/38/46
f 25/19/47 7/34/47 34/38/47
f 26/29/48 33/35/48 7/34/48
f 26/29/49 23/16/49 33/35/49
f 23/16/50 11/46/50 33/35/50
f 31/28/51 32/32/51 10/43/51
f 31/28/52 22/27/52 32/32/52
f 22/27/53 5/23/53 32/32/53
f 29/25/54 30/31/54 9/40/54
f 29/25/55 21/24/55 30/31/55
f 21/24/56 4/20/56 30/31/56
f 27/22/57 28/60/57 8/55/57
f 27/22/58 19/21/58 28/60/58
f 19/21/59 3/61/59 28/60/59
f 25/19/60 26/29/60 7/34/60
f 25/19/61 15/18/61 26/29/61
f 15/18/62 2/4/62 26/29/62
f 23/16/63 24/33/63 11/46/63
f 23/16/64 16/6/64 24/33/64
f 16/6/65 6/26/65 24/33/65
f 17/15/66 22/27/66 6/26/66
f 17/15/67 20/14/67 22/27/67
f 20/14/68 5/23/68 22/27/68
f 20/12/69 21/24/69 5/23/69
f 20/12/70 18/11/70 21/24/70
f 18/11/71 4/20/71 21/24/71
f 18/9/72 19/21/72 4/20/72
f 18/9/73 13/8/73 19/21/73
f 13/8/74 3/61/74 19/21/74
f 16/6/75 17/62/75 6/26/75
f 16/6/76 14/5/76 17/62/76
f 14/5/77 1/63/77 17/62/77
f 13/3/78 15/18/78 3/17/78
f 13/3/79 14/2/79 15/18/79
f 14/2/80 2/4/80 15/18/80
